<?xml version="1.0" encoding="UTF-8" standalone="no"?>
<!-- Created with Inkscape (http://www.inkscape.org/) -->

<svg
   width="210mm"
   height="95mm"
   viewBox="0 0 210 95"
   version="1.1"
   id="svg5"
   xmlns="http://www.w3.org/2000/svg"
   xmlns:svg="http://www.w3.org/2000/svg">
  <defs
     id="defs2" />
  <g
     id="layer1"
     transform="translate(3.7125,-76.4775)" />
  <g
     id="layer2"
     transform="translate(1.3270833,-76.4775)">
    <g
       id="g1993">
      <path
         id="path33968"
         style="font-size:83.3937px;line-height:1.25;font-family:'SF Armenian Rounded';-inkscape-font-specification:'SF Armenian Rounded';fill:#000000;fill-opacity:1;stroke-width:1.55304"
         d="m 130.28906,303.27539 a 76.04722,76.04722 0 0 0 -76.046872,76.04492 76.04722,76.04722 0 0 0 0.02539,0.72461 h 26.38086 a 49.673613,49.673613 0 0 1 -0.0332,-0.72461 49.673613,49.673613 0 0 1 49.673822,-49.67187 49.673613,49.673613 0 0 1 49.67383,49.67187 49.673613,49.673613 0 0 1 -0.0117,0.72461 h 0.0684 c -0.13999,8.32135 -1.23984,14.72758 -3.32226,19.16406 -2.13543,4.65907 -6.40623,7.81088 -12.8125,9.46094 -6.30921,1.65014 -15.81969,2.47656 -28.53516,2.47656 H 34.595703 c -4.464974,0 -7.911274,1.50468 -10.337891,4.51368 -2.426615,3.00899 -3.638671,6.4059 -3.638671,10.1914 0,2.23257 0.290639,4.32044 0.873047,6.26172 0.582365,1.94132 1.406896,3.78409 2.474609,5.53125 1.164774,1.65007 2.475669,3.34854 3.931641,5.0957 L 143.41602,570.93555 a 34.403939,34.403939 0 0 1 18.45117,-5.39649 34.403939,34.403939 0 0 1 6.80469,0.68164 c 0.009,-0.19761 0.0195,-0.39521 0.0195,-0.5957 0,-1.74716 -0.34012,-3.34866 -1.01953,-4.80469 -0.67947,-1.45595 -1.55338,-2.7669 -2.6211,-3.93164 L 55.271484,435.75195 v -1.01953 h 80.076176 c 16.50099,0 29.9461,-1.89227 40.33203,-5.67773 10.48298,-3.88267 18.20008,-9.94874 23.15039,-18.19922 4.72545,-7.96842 7.18967,-18.24286 7.4043,-30.81055 h 0.0762 a 76.04722,76.04722 0 0 0 0.0254,-0.72461 76.04722,76.04722 0 0 0 -76.04688,-76.04492 z"
         transform="scale(0.26458333)" />
      <path
         d="m 72.946734,153.27603 q 2.812146,0 5.239066,-0.92454 2.465444,-0.92454 4.314526,-2.65805 1.887605,-1.73351 3.004758,-4.1219 h 0.154084 q 0.886017,2.46544 2.465442,4.19895 1.617947,1.69498 3.813731,2.61953 2.234308,0.88601 4.96941,0.88601 3.890779,0 6.741439,-1.81056 2.8892,-1.84906 4.23749,-4.8153 h 0.15408 v 3.15885 q 0,1.42532 0.96307,2.42691 0.96306,0.96307 2.38839,0.96307 1.46385,0 2.38839,-0.96307 0.96307,-1.00159 0.96307,-2.42691 v -32.66713 q 0,-1.46386 -0.96307,-2.42693 -0.92454,-0.96305 -2.38839,-0.96305 -1.42533,0 -2.38839,0.96305 -0.96307,0.96307 -0.96307,2.42693 v 20.41695 q 0,4.19897 -2.58101,7.0111 -2.58101,2.77363 -6.587355,2.77363 -3.73669,0 -5.970997,-2.1958 -2.234308,-2.2343 -2.234308,-5.85542 v -22.15046 q 0,-1.46386 -0.963063,-2.42693 -0.924541,-0.96305 -2.388398,-0.96305 -1.425335,0 -2.388398,0.96305 -0.963063,0.96307 -0.963063,2.42693 v 20.76366 q 0,4.08339 -2.542488,6.77997 -2.503966,2.65805 -6.510311,2.65805 -3.967823,0 -6.163609,-2.31135 -2.15726,-2.34987 -2.15726,-6.47179 v -21.41854 q 0,-1.46386 -0.963065,-2.42693 -0.924541,-0.96305 -2.388398,-0.96305 -1.425333,0 -2.388398,0.96305 -0.963064,0.96307 -0.963064,2.42693 v 22.95944 q 0,3.96782 1.617947,6.93406 1.617949,2.96624 4.545662,4.62271 2.927712,1.61793 6.895535,1.61793 z"
         id="path33970"
         style="font-size:83.3937px;line-height:1.25;font-family:'SF Armenian Rounded';-inkscape-font-specification:'SF Armenian Rounded';fill:#000000;fill-opacity:1;stroke-width:0.410906" />
      <path
         d="m 127.49466,168.68506 q 1.46386,0 2.38839,-1.00159 0.96307,-0.96305 0.96307,-2.38839 v -48.15319 q 0,-1.46386 -0.96307,-2.42693 -0.92453,-0.96305 -2.38839,-0.96305 -1.42533,0 -2.3884,0.96305 -0.96306,0.96307 -0.96306,2.42693 v 48.15319 q 0,1.42534 0.96306,2.38839 0.96307,1.00159 2.3884,1.00159 z M 153.07362,153.199 q 1.46387,0 2.38841,-0.96307 0.96307,-1.00159 0.96307,-2.42691 v -21.30298 q 0,-6.85701 -3.54409,-10.82484 -3.50554,-4.00634 -9.93882,-4.00634 -4.43009,0 -7.39633,1.84908 -2.96622,1.81056 -4.54566,4.6227 h -6.08655 v 13.32881 h 5.93247 v -2.54248 q 0,-3.42851 1.23273,-5.971 1.27123,-2.5425 3.50554,-3.92931 2.27283,-1.42532 5.3161,-1.42532 4.43011,0 6.62589,2.61952 2.19578,2.58102 2.19578,7.47338 v 20.10878 q 0,1.42532 0.96307,2.42691 0.96307,0.96307 2.38839,0.96307 z"
         id="path33972"
         style="font-size:83.3937px;line-height:1.25;font-family:'SF Armenian Rounded';-inkscape-font-specification:'SF Armenian Rounded';fill:#000000;fill-opacity:1;stroke-width:0.410906" />
      <path
         d="m 192.48219,145.99529 v -24.77 h -0.53931 q -1.1942,-2.23431 -2.96624,-3.89079 -1.77203,-1.695 -4.08339,-2.61954 -2.31136,-0.96305 -5.16202,-0.96305 -4.96941,0 -8.74462,2.42692 -3.7752,2.42691 -5.89395,6.85702 -2.11875,4.43008 -2.11875,10.40109 v 0.0384 q 0,5.97101 2.08023,10.40109 2.11874,4.43011 5.85542,6.89555 3.7367,2.42692 8.66759,2.42692 2.88918,0 5.23905,-0.88602 2.38841,-0.88604 4.16044,-2.50397 1.81056,-1.61795 2.96624,-3.81373 z m -11.4412,1.27123 q -3.42851,0 -5.97098,-1.65645 -2.50397,-1.69501 -3.89079,-4.7768 -1.34828,-3.12035 -1.34828,-7.35782 v -0.0384 q 0,-4.19897 1.34828,-7.28076 1.38682,-3.08182 3.89079,-4.7768 2.54247,-1.69499 5.97098,-1.69499 3.27443,0 5.73987,1.69499 2.50397,1.69498 3.89077,4.81532 1.42534,3.0818 1.42534,7.24224 v 0.0384 q 0,4.16044 -1.38682,7.28076 -1.38679,3.0818 -3.89078,4.81533 -2.46544,1.69498 -5.77838,1.69498 z m 0.46227,21.49557 q 5.31611,0 9.16837,-1.92612 3.89078,-1.88761 6.00953,-5.35463 2.11872,-3.46703 2.11872,-8.08973 v -36.24972 q 0,-1.46386 -0.96306,-2.42693 -0.92453,-0.96305 -2.38839,-0.96305 -1.42535,0 -2.3884,0.96305 -0.96306,0.96307 -0.96306,2.42693 v 35.59484 q 0,4.66122 -2.77361,7.3578 -2.77363,2.7351 -7.89715,2.7351 -4.19895,0 -6.08654,-1.07862 -1.88761,-1.04012 -3.00477,-2.23433 -0.84749,-0.92452 -1.50237,-1.65646 -0.6549,-0.73193 -2.00319,-0.73193 -1.34829,0 -2.31136,0.77046 -0.92452,0.80897 -0.92452,2.27283 0,0.96307 0.46227,1.77204 0.50078,0.80896 1.11715,1.50237 2.15726,2.38841 5.77838,3.85226 3.65965,1.46384 8.552,1.46384 z"
         id="path33974"
         style="font-size:83.3937px;line-height:1.25;font-family:'SF Armenian Rounded';-inkscape-font-specification:'SF Armenian Rounded';fill:#000000;fill-opacity:1;stroke-width:0.410906" />
      <ellipse
         style="fill:#000000;fill-opacity:1;fill-rule:evenodd;stroke:none;stroke-width:1.58256;stroke-miterlimit:4;stroke-dasharray:none;stroke-opacity:1"
         id="path34420-5"
         cx="43.385601"
         cy="159.51816"
         rx="8.3271914"
         ry="8.3269253" />
    </g>
  </g>
</svg>
